{"title":"Iron Maiden - En Vivo 2012 [HD] [720P]","uid":8826083,"size":7041008145,"categoryP":"video","categoryS":"music_videos","magnet":"?xt=urn:btih:195b63f48d5eb7315e9b3d01d9090f0afa865069&amp;dn=Iron+Maiden+-+En+Vivo+2012+%5BHD%5D+%5B720P%5D&amp;tr=udp%3A%2F%2Ftracker.openbittorrent.com%3A80&amp;tr=udp%3A%2F%2Fopen.demonii.com%3A1337&amp;tr=udp%3A%2F%2Ftracker.coppersurfer.tk%3A6969&amp;tr=udp%3A%2F%2Fexodus.desync.com%3A6969","seeders":0,"leechers":1,"uploader":"justadog","files":1,"time":1376851630,"description":"General\nFormat                                   : Matroska\nFormat version                           : Version 2\nFile size                                : 6.56 GiB\nDuration                                 : 1h 55mn\nOverall bit rate                         : 8 094 Kbps\nMovie name                               : Iron.Maiden-En.Vivo.2012.x264.BDRip(720p)\nEncoded date                             : UTC 2012-03-26 08:39:27\nWriting application                      : mkvmerge v5.3.0 ('I could have danced') built on Feb  9 2012 10:38:07\nWriting library                          : libebml v1.2.3 + libmatroska v1.3.0\n\nVideo\nID                                       : 1\nFormat                                   : AVC\nFormat/Info                              : Advanced Video Codec\nFormat profile                           : &lt;a class=&quot;__cf_email__&quot; href=&quot;/cdn-cgi/l/email-protection&quot; data-cfemail=&quot;4c04252b240c0078627d&quot;&gt;[email&amp;#160;protected]&lt;/a&gt;&lt;script cf-hash='f9e31' type=&quot;text/javascript&quot;&gt;\n/* &lt;![CDATA[ */!function(){try{var t=&quot;currentScript&quot;in document?document.currentScript:function(){for(var t=document.getElementsByTagName(&quot;script&quot;),e=t.length;e--;)if(t[e].getAttribute(&quot;cf-hash&quot;))return t[e]}();if(t&amp;&amp;t.previousSibling){var e,r,n,i,c=t.previousSibling,a=c.getAttribute(&quot;data-cfemail&quot;);if(a){for(e=&quot;&quot;,r=parseInt(a.substr(0,2),16),n=2;a.length-n;n+=2)i=parseInt(a.substr(n,2),16)^r,e+=String.fromCharCode(i);e=document.createTextNode(e),c.parentNode.replaceChild(e,c)}}}catch(u){}}();/* ]]&gt; */&lt;/script&gt;\nFormat settings, CABAC                   : Yes\nFormat settings, ReFrames                : 5 frames\nMuxing mode                              : Header stripping\nCodec ID                                 : V_MPEG4/ISO/AVC\nDuration                                 : 1h 55mn\nBit rate                                 : 6 587 Kbps\nWidth                                    : 1 280 pixels\nHeight                                   : 720 pixels\nDisplay aspect ratio                     : 16:9\nFrame rate mode                          : Constant\nFrame rate                               : 23.976 fps\nColor space                              : YUV\nChroma subsampling                       : 4:2:0\nBit depth                                : 8 bits\nScan type                                : Progressive\nBits/(Pixel*Frame)                       : 0.298\nStream size                              : 5.20 GiB (79%)\nTitle                                    : &quot;Live at Estadio Nacional, Santiago&quot; 2011\nWriting library                          : x264 core 122 r2184 5c85e0a\nLanguage                                 : English\nDefault                                  : Yes\nForced                                   : No\n\nAudio\nID                                       : 2\nFormat                                   : DTS\nFormat/Info                              : Digital Theater Systems\nMode                                     : 16\nFormat settings, Endianness              : Big\nMuxing mode                              : Header stripping\nCodec ID                                 : A_DTS\nDuration                                 : 1h 55mn\nBit rate mode                            : Constant\nBit rate                                 : 1 509 Kbps\nChannel(s)                               : 6 channels\nChannel positions                        : Front: L C R, Side: L R, LFE\nSampling rate                            : 48.0 KHz\nBit depth                                : 24 bits\nCompression mode                         : Lossy\nStream size                              : 1.22 GiB (19%)\nTitle                                    : DTS, 6ch, 48KHz, 1536kbps\nLanguage                                 : English\nDefault                                  : Yes\nForced                                   : No\n\nMenu\n00:00:00.500                             : :01. Satellite 15\n00:04:44.742                             : :02. The Final Frontier\n00:08:54.158                             : :03. El Dorado\n00:14:47.386                             : :04. 2 Minutes To Midnight\n00:20:34.942                             : :05. The Talisman\n00:29:20.842                             : :06. Coming Home\n00:36:30.229                             : :07. Dance Of Death\n00:45:28.016                             : :08. The Trooper\n00:49:26.338                             : :09. The Wicker Man\n00:54:03.281                             : :10. Blood Brothers\n01:04:47.300                             : :11. When The Wild Wind Blows\n01:15:18.764                             : :12. The Evil That Men Do\n01:19:40.525                             : :13. Fear Of The Dark\n01:27:14.979                             : :14. Iron Maiden\n01:33:09.333                             : :15. The Number Of The Beast\n01:38:07.840                             : :16. Hallowed Be Thy Name\n01:45:37.331                             : :17. Running Free\n01:53:24.339                             : :[-= credits =-]\n\n\njustadog who uploaded this..\n","torrent":{"xt":"urn:btih:195b63f48d5eb7315e9b3d01d9090f0afa865069","amp;dn":"Iron+Maiden+-+En+Vivo+2012+%5BHD%5D+%5B720P%5D","amp;tr":["udp%3A%2F%2Ftracker.openbittorrent.com%3A80","udp%3A%2F%2Fopen.demonii.com%3A1337","udp%3A%2F%2Ftracker.coppersurfer.tk%3A6969","udp%3A%2F%2Fexodus.desync.com%3A6969"],"infoHash":"195b63f48d5eb7315e9b3d01d9090f0afa865069","infoHashBuffer":{"type":"Buffer","data":[25,91,99,244,141,94,183,49,94,155,61,1,217,9,15,10,250,134,80,105]},"announce":[],"urlList":[]}}